<svg xmlns="http://www.w3.org/2000/svg" viewBox="0 0 1059.01 240"><defs><style>.cls-1{fill:#fff;}.cls-2{fill:#bfbfbf;}</style></defs><g id="Camada_2" data-name="Camada 2"><g id="Camada_1-2" data-name="Camada 1"><path class="cls-1" d="M820.4,239.4H783.3V72.6h37.1Z"/><path class="cls-1" d="M80.6,106.8a41.82,41.82,0,0,0-16.7,3.3A40.22,40.22,0,0,0,50,120c-8.3,8.7-12.5,20.7-12.5,36s4.2,27.5,12.7,36.4a42.24,42.24,0,0,0,14.1,10,42.88,42.88,0,0,0,16.9,3.4c10.9,0,19.7-3,26.3-9a43.63,43.63,0,0,0,13.1-20.3l32.8,12c-4.3,14.1-12.7,26.2-25,36.4C116,234.9,100.3,240,81.1,240q-34.5,0-57.8-24.1T0,155.9c0-24.2,7.6-44.2,23-60S57.4,72.1,80.3,72.1c19.6,0,35.5,5.1,47.9,15.2a69.54,69.54,0,0,1,24,36.7l-33.5,12.3a42.33,42.33,0,0,0-12.4-20.9C100,109.7,91.5,106.8,80.6,106.8Z"/><path class="cls-1" d="M214.9,191.9a45.06,45.06,0,0,0,14.5,9.9,44.1,44.1,0,0,0,34.2.1,44.78,44.78,0,0,0,14.5-9.8c8.6-8.8,12.9-21,12.9-36.8,0-15.5-4.3-27.5-12.9-36.2a44.91,44.91,0,0,0-63.2,0c-8.6,8.7-12.9,20.7-12.9,36.2S206.3,183,214.9,191.9ZM246.6,72.1c24,0,43.9,7.8,59.4,23.5s23.4,35.5,23.4,59.7-7.8,44.1-23.4,59.9-35.4,23.6-59.4,23.6c-23.7,0-43.4-7.8-59.1-23.6s-23.4-35.8-23.4-59.9,7.8-43.9,23.4-59.7S222.7,72.1,246.6,72.1Z"/><path class="cls-1" d="M426.3,73.1v38.1a82.51,82.51,0,0,0-12.2-1c-28.2,0-42.2,13.9-42.2,44.8v83.8H334.5V72.6h36.4V99.3a41.82,41.82,0,0,1,17.7-19.9,53,53,0,0,1,27.8-7.2A41.49,41.49,0,0,1,426.3,73.1Z"/><path class="cls-1" d="M477.3,138.2h83.3a35,35,0,0,0-11.4-24.8c-7-6.7-17.3-10-30.5-10-12.1,0-21.9,3.5-29.2,10.4S478.1,129,477.3,138.2Zm87.8,40.9,34.1,10c-4.9,14.4-14,26.2-27.3,35.7s-29.8,14.1-49.3,14.1c-24.2,0-44.6-7.7-61.4-22.9s-25.3-35.7-25.3-61.3q0-36.15,24.6-59.3a82.06,82.06,0,0,1,58-23.2c26,0,46.3,7.4,61,22s22,34.5,22,59.5c0,6.7-.3,10.6-1,11.9h-124a41.45,41.45,0,0,0,3.9,16.2,39.39,39.39,0,0,0,10.2,13.1,47.66,47.66,0,0,0,32.2,11.6C544.4,206.5,558.6,197.4,565.1,179.1Z"/><path class="cls-1" d="M647.2,239.4h-38V0h38.3V96.4c4-6.7,10.6-12.3,19.9-16.8a70.71,70.71,0,0,1,31.7-6.8q35.55,0,55.7,23.2c13.4,15.5,20,35.2,20,59.3,0,24.5-7.1,44.5-21,60.3s-32.7,23.5-56,23.5-40.1-8.3-50.5-24.9v25.2ZM723.1,192c8.2-9,12.2-21.2,12.2-36.5s-4-27.4-12.1-36.2-18.7-13.2-31.9-13.2c-12.8,0-23.3,4.3-31.7,13.2s-12.4,20.9-12.4,36.2,4.2,27.3,12.4,36.4,18.8,13.6,31.7,13.6C704.4,205.5,714.9,201,723.1,192Z"/><path class="cls-1" d="M996,239.3H832.2V206.5L935.6,105.6H830.5v-33H995.7v31.8L890.9,206.1h105l.1,33.2Z"/><path class="cls-2" d="M1013.7,231.7a26.22,26.22,0,0,1-5.8-8.5,26.36,26.36,0,0,1,5.8-28.9,26.5,26.5,0,0,1,8.5-5.9,25.34,25.34,0,0,1,10.2-1.9,26.63,26.63,0,0,1,26.6,26.6,25.66,25.66,0,0,1-1.9,10.2,25,25,0,0,1-5.9,8.5,25.84,25.84,0,0,1-8.6,5.7,25.34,25.34,0,0,1-10.2,1.9,24.87,24.87,0,0,1-10.1-1.9A25.61,25.61,0,0,1,1013.7,231.7Z"/></g></g></svg>