<?xml version="1.0" encoding="utf-8"?>
<!-- Generator: Adobe Illustrator 24.1.2, SVG Export Plug-In . SVG Version: 6.00 Build 0)  -->
<svg version="1.1" id="Camada_1" xmlns="http://www.w3.org/2000/svg" xmlns:xlink="http://www.w3.org/1999/xlink" x="0px" y="0px"
	 viewBox="0 0 677.7 240" style="enable-background:new 0 0 677.7 240;" xml:space="preserve">
<style type="text/css">
	.st0{fill:#FFFFFF;}
</style>
<g>
	<path class="st0" d="M489.9,89.9h-24.3v82c0,1.5-1.3,2.9-2.9,2.9H444c-1.5,0-2.9-1.3-2.9-2.9v-82h-24.4c-0.6,0-1.5-0.2-2-0.6
		c-0.4-0.4-0.9-1.1-0.9-2V72.8c0-0.6,0.2-1.5,0.9-2c0.4-0.4,1.3-0.9,2-0.6h73.2c1.5,0,2.9,1.1,2.9,2.6v14.5
		C492.8,88.8,491.5,89.9,489.9,89.9z"/>
	<path class="st0" d="M567.8,174c-9.5,1.3-19.3,2-28.9,1.7c-18.5,0-34.7-4.6-34.7-30.3V98.7c0-25.7,16.4-30,34.9-30
		c9.5-0.2,19.1,0.4,28.7,1.7c2,0.2,2.9,1.1,2.9,2.9v13.2c0,1.5-1.3,2.9-2.9,2.9h-30c-6.7,0-9.2,2.2-9.2,9.7v12.7h38
		c1.5,0,2.9,1.3,2.9,2.9V128c0,1.5-1.3,2.9-2.9,2.9h-38v14.9c0,7.2,2.4,9.7,9.2,9.7h30c1.5,0,2.9,1.3,2.9,2.9v13.1
		C570.7,172.9,569.8,173.8,567.8,174z"/>
	<path class="st0" d="M675.5,174.7h-22.7c-1.5,0.2-3.1-0.6-3.8-2.2l-19.8-30.7l-17.8,30c-0.9,1.7-2,2.9-3.6,2.9h-21.1
		c-0.4,0-1.1,0-1.5-0.4s-0.6-0.9-0.6-1.5c0-0.4,0.2-0.6,0.2-0.9l30.9-50.9l-31.4-48.2c-0.2-0.2-0.2-0.6-0.2-0.9c0-1.1,1.1-2,2.2-1.7
		h23.4c1.5,0,2.7,1.3,3.6,2.6l18.2,28.5l17.8-28.5c0.6-1.5,2-2.4,3.6-2.6H674c1.1,0,2.2,0.6,2.2,1.7c0,0.2-0.2,0.6-0.2,0.9
		l-31.2,48.6l32.5,50.4c0.2,0.4,0.4,0.9,0.4,1.3C677.5,174,676.8,174.7,675.5,174.7z"/>
	<path class="st0" d="M379.6,70.3c-1.1,0-2,0.6-2.2,1.7l-20.7,75.6c-0.2,1.5-0.6,2.2-2,2.2c-1.3,0-1.8-0.6-2-2.2L332,72
		c-0.2-1.1-1.1-1.7-2.2-1.7h-20.5c-0.6,0-1.3,0.2-1.8,0.9c-0.4,0.4-0.6,1.1-0.4,1.7c0,0,25.3,86.8,25.6,87.7
		c3.3,10.3,11.6,15.4,22,15.4c10,0.4,19.1-5.9,22-15.4c0.4-1.1,25.2-87.7,25.2-87.7c0.2-0.6,0-1.3-0.4-1.7s-1.1-0.9-1.8-0.9H379.6z"
		/>
	<path class="st0" d="M263.9,0H51c-7.8,0-14.9,4.2-18.7,10.5c-4,6.6-4.2,14.7-0.6,21.2L53,71.6H14.3c-4.9,0-9.5,2.4-12.2,6.6
		c-2.7,4.2-2.7,9.4-0.4,13.8l68.5,127.6c2.4,4.6,7.4,7.4,12.5,7.4s10-2.9,12.5-7.4l18.7-34.6l23.4,43.6c3.8,7,11.3,11.4,19.3,11.4
		s15.6-4.4,19.3-11.4l106.8-198c3.6-6.6,3.3-14.5-0.6-20.6C278.3,3.7,271.4,0,263.9,0z M168.7,83.5L122,169.8
		c-1.5,3.1-4.7,4.8-8.3,4.8c-3.6,0-6.7-2-8.3-4.8L59.3,84.4c-1.3-2.6-1.3-5.7,0.2-8.3s4.5-4.2,7.4-4.2h94.3c2.9,0,5.6,1.3,6.9,3.7
		C170,78,170,81.1,168.7,83.5z"/>
</g>
</svg>
