<svg xmlns="http://www.w3.org/2000/svg" viewBox="0 0 1059 240"><defs><style>.cls-1{fill:#bfbfbf;}</style></defs><g id="Camada_2" data-name="Camada 2"><g id="Camada_1-2" data-name="Camada 1"><path d="M820.45,239.42H783.33V72.57h37.12Z"/><path d="M80.56,106.78a40.7,40.7,0,0,0-16.71,3.33A41.15,41.15,0,0,0,49.92,120c-8.34,8.7-12.52,20.73-12.52,35.95s4.18,27.54,12.66,36.39a41.53,41.53,0,0,0,31.08,13.33c10.93,0,19.71-3,26.32-9a44.18,44.18,0,0,0,13.09-20.3l32.8,12c-4.31,14.06-12.66,26.24-25,36.39S100.27,240,81.14,240c-23,0-42.3-8-57.83-24.06S0,179.84,0,155.92c0-24.21,7.62-44.21,23-60S57.4,72.13,80.27,72.13q29.36,0,47.91,15.22a69.59,69.59,0,0,1,24,36.68l-33.52,12.32a42.43,42.43,0,0,0-12.37-20.87C100,109.68,91.51,106.78,80.56,106.78Z"/><path d="M214.94,191.87a44.38,44.38,0,0,0,63.3.15c8.63-8.85,12.95-21,12.95-36.82,0-15.51-4.32-27.55-12.95-36.24a44.91,44.91,0,0,0-63.3,0C206.31,127.65,202,139.69,202,155.2S206.31,183,214.94,191.87ZM246.59,72.13c24,0,43.88,7.83,59.41,23.49s23.45,35.51,23.45,59.72-7.77,44.07-23.45,59.87-35.39,23.63-59.41,23.63c-23.74,0-43.45-7.83-59.13-23.63S164,179.41,164,155.34s7.77-43.92,23.45-59.72S222.71,72.13,246.59,72.13Z"/><path d="M426.27,73.15v38.12a87.84,87.84,0,0,0-12.23-1c-28.19,0-42.15,13.91-42.15,44.79v83.79h-37.4V72.57h36.39V99.24a41.63,41.63,0,0,1,17.7-19.86,53.1,53.1,0,0,1,27.76-7.25A44.77,44.77,0,0,1,426.27,73.15Z"/><path d="M477.34,138.24h83.3a34.88,34.88,0,0,0-11.37-24.79c-7-6.67-17.26-10-30.5-10-12.08,0-21.86,3.47-29.2,10.43S478.06,129,477.34,138.24Zm87.76,40.88,34.09,10c-4.89,14.35-14,26.24-27.33,35.66s-29.78,14.06-49.35,14.06c-24.17,0-44.59-7.68-61.42-22.9s-25.32-35.66-25.32-61.32c0-24.07,8.2-43.93,24.6-59.29a81.8,81.8,0,0,1,58-23.2c26,0,46.32,7.4,61,22s22,34.5,22,59.49c0,6.67-.29,10.58-1,11.89h-124a39.64,39.64,0,0,0,14.1,29.28,47.71,47.71,0,0,0,32.22,11.6C544.38,206.51,558.62,197.38,565.1,179.12Z"/><path d="M647.24,239.42h-38V0h38.27V96.4c4-6.67,10.64-12.32,19.85-16.82A70.42,70.42,0,0,1,699,72.77c23.74,0,42.29,7.68,55.68,23.2s20,35.22,20,59.28c0,24.5-7.05,44.51-21,60.31S721,239,697.74,239s-40.14-8.26-50.5-24.93ZM723.05,192c8.2-9,12.23-21.17,12.23-36.53s-4-27.4-12.09-36.24-18.69-13.2-31.93-13.2c-12.81,0-23.31,4.35-31.65,13.2s-12.37,20.87-12.37,36.24,4.17,27.25,12.37,36.38,18.84,13.63,31.65,13.63C704.35,205.5,714.85,201,723.05,192Z"/><path d="M996,239.28H832.24V206.51L935.68,105.62H830.52V72.57H995.67v31.8L890.94,206.14H996v33.14Z"/><path class="cls-1" d="M1013.69,231.67a27.11,27.11,0,0,1-5.76-28.86,25.85,25.85,0,0,1,5.76-8.61,24.83,24.83,0,0,1,18.68-7.8A26.63,26.63,0,0,1,1059,213a24.79,24.79,0,0,1-7.8,18.67,26,26,0,0,1-18.82,7.66,25.48,25.48,0,0,1-18.68-7.66Z"/></g></g></svg>